<svg xmlns="http://www.w3.org/2000/svg" width="1536" height="648" viewBox="0 0 1536 648">
  <g fill="none">
    <path d="M0 648V590l106-40 124-10 94-86 152 16 110-58 214 38 124-52 182 30 92 72 130 18 122 72v58Z" fill="#5e2c1f"/>
    <path d="M0 648V612l144-42 118 0 102-90 142 22 122-62 220 42 118-46 188 34 112 94 168 0v48Z" fill="#7b3926"/>
    <path d="M0 648V622l180 0 104-78 180 28 128-74 260 40 118-58 214 24 138 90 214 0v28Z" fill="#3f1f17"/>
    <g fill="#ffb05b" opacity=".95">
      <path d="M250 622h54l18 26h-90Z"/>
      <path d="M1020 620h56l18 28h-92Z"/>
      <path d="M1320 614h46l16 24h-78Z"/>
    </g>
    <g fill="#ffd7a6" opacity=".62">
      <polygon points="122,618 148,566 174,618"/>
      <polygon points="1374,618 1400,570 1428,618"/>
    </g>
  </g>
</svg>
