<svg xmlns="http://www.w3.org/2000/svg" width="1536" height="648" viewBox="0 0 1536 648">
  <g fill="none">
    <path d="M0 648V600l126-30 126-4 108-92 146 16 118-68 228 42 120-58 196 34 106 88 148 10 114 62v0Z" fill="#0f2f39"/>
    <path d="M0 648V620l170-30 118 8 104-88 150 22 124-72 252 46 124-52 212 22 138 92 144 0v52Z" fill="#14424b"/>
    <path d="M0 648V628l208 0 112-82 182 28 126-74 274 42 120-60 226 28 146 86 142 0v32Z" fill="#0a2028"/>
    <g fill="#8bfff1" opacity=".95">
      <polygon points="112,626 148,526 188,626"/>
      <polygon points="166,626 204,504 248,626"/>
      <polygon points="1254,626 1292,520 1336,626"/>
      <polygon points="1314,626 1354,500 1400,626"/>
    </g>
    <g fill="#b9fff7" opacity=".45">
      <polygon points="530,626 548,584 568,626"/>
      <polygon points="980,626 998,586 1018,626"/>
    </g>
  </g>
</svg>
