<svg xmlns="http://www.w3.org/2000/svg" width="128" height="64" viewBox="0 0 128 64">
  <g fill="none" fill-rule="evenodd" shape-rendering="crispEdges">
    <ellipse cx="64" cy="10" rx="38" ry="5" fill="#d9edf4" opacity=".2"/>
    <ellipse cx="64" cy="11" rx="30" ry="3" fill="#eef7ff" opacity=".16"/>
    <rect x="62" y="9" width="4" height="13" rx="2" fill="#99d7ff"/>

    <g stroke="#081224" stroke-width="2" stroke-linejoin="round" stroke-linecap="round">
      <path d="M36 37l11-9 14-6h18l15 3 17 8-5 7-15 6H59l-14-2z" fill="#172948"/>
      <path d="M46 33l12-6 16-2h14l13 5-9 6H66l-12 2z" fill="#476f95"/>
      <path d="M58 27l15-2h10l8 4-3 8H58l-5-4z" fill="#132f49"/>
      <path d="M58 28l13-2 8 1-2 5-11 2-8-2z" fill="#ffc08a" stroke="none"/>
      <path d="M91 24h10l16 5-14 4H92z" fill="#1f324f"/>
      <path d="M100 27h9v2h-9z" fill="#89dcff" stroke="none"/>
      <path d="M30 34l10-2-3 5H26z" fill="#7fd6ff"/>
      <path d="M24 35l7-1-2 4h-9z" fill="#4d77a0"/>
      <path d="M26 38l-9 0-4 4 7 2 9-1z" fill="#ff9340"/>
      <path d="M15 40l-7 1 7 2 10-1z" fill="#ffd277"/>
      <path d="M61 32l14-6 2 6-14 6z" fill="#28415f"/>
      <path d="M64 38l13-4 2 4-12 4z" fill="#28415f"/>
      <path d="M70 40h8l5 4h-9z" fill="#2e4867"/>
      <path d="M52 46h15" stroke="#98e0ff"/>
      <path d="M66 46h15" stroke="#98e0ff"/>
      <path d="M57 21l-3-4 4-4 4 4-3 4z" fill="#203456"/>
      <path d="M60 21h14l10-2 8 2-12 3z" fill="#88d8ff"/>
      <path d="M88 29l6-8 10 2-4 6z" fill="#223959"/>
      <path d="M63 40l18 1" stroke="#d2efff" opacity=".32"/>
    </g>
  </g>
</svg>
