<svg xmlns="http://www.w3.org/2000/svg" width="128" height="64" viewBox="0 0 128 64">
  <g fill="none" fill-rule="evenodd" shape-rendering="crispEdges">
    <ellipse cx="64" cy="10" rx="38" ry="5" fill="#d9edf4" opacity=".2"/>
    <ellipse cx="64" cy="11" rx="30" ry="3" fill="#eef7ff" opacity=".16"/>
    <rect x="62" y="9" width="4" height="13" rx="2" fill="#9ad9ff"/>

    <g stroke="#081224" stroke-width="2" stroke-linejoin="round" stroke-linecap="round">
      <circle cx="24" cy="33" r="8" fill="#12233f"/>
      <path d="M24 28v10M19 33h10" stroke="#7cd8ff"/>
      <path d="M28 33l14-5 9-1" stroke="#375a82"/>

      <path d="M34 38l10-11 15-6h24l14 3 14 8-4 7-12 7H58l-15-3z" fill="#172948"/>
      <path d="M47 34l12-6 18-2h14l11 4-8 6H67l-13 2z" fill="#456f96"/>
      <path d="M57 27l18-2h12l7 4-3 8H58l-6-5z" fill="#13314b"/>
      <path d="M57 28l15-2 8 1-2 5-13 2-8-2z" fill="#ffc58f" stroke="none"/>
      <path d="M87 21h9l8 2 4 6-10 2-9-2z" fill="#243a5a"/>
      <path d="M96 24h10l15 4-6 7h-12l-8-3z" fill="#1d304d"/>
      <path d="M103 27h9v2h-9z" fill="#8adfff" stroke="none"/>
      <path d="M31 38l-10-1-3 4 7 2 8-1z" fill="#ff9540"/>
      <path d="M20 40l-7 1 7 2 9-1z" fill="#ffd176"/>
      <path d="M48 46h18" stroke="#96e0ff"/>
      <path d="M44 46l5-11" stroke="#6db7e6"/>
      <path d="M71 46h16" stroke="#96e0ff"/>
      <path d="M79 46l4-8" stroke="#6db7e6"/>
      <path d="M57 21l-3-4 4-4 4 4-3 4z" fill="#203456"/>
      <path d="M60 21h17l9-2 9 2-13 3z" fill="#86d8ff"/>
      <path d="M84 39h8l5 5h-10z" fill="#314c6e"/>
      <path d="M65 40l18 1" stroke="#d3efff" opacity=".32"/>
    </g>
  </g>
</svg>
