<svg xmlns="http://www.w3.org/2000/svg" width="128" height="64" viewBox="0 0 128 64">
  <g fill="none" fill-rule="evenodd" shape-rendering="crispEdges">
    <ellipse cx="63" cy="10" rx="38" ry="5" fill="#d9edf4" opacity=".22"/>
    <ellipse cx="63" cy="11" rx="31" ry="3" fill="#eef7ff" opacity=".18"/>
    <rect x="61" y="8" width="4" height="14" rx="2" fill="#98d7ff"/>

    <g stroke="#081224" stroke-width="2" stroke-linejoin="round" stroke-linecap="round">
      <path d="M24 37l11-10 18-5h25l12 2 16 9-4 7-11 6H56l-16-2-13-4z" fill="#1a2d4c"/>
      <path d="M37 34l12-7 18-2h14l12 5-9 6H58l-14 2z" fill="#4f7a9f"/>
      <path d="M49 27h18l9 3-3 8H51l-5-5z" fill="#173450"/>
      <path d="M48 27l16-2 8 1-2 5-15 3-7-2z" fill="#ffcb98" stroke="none"/>
      <path d="M33 24l18-2v6l-18 3z" fill="#2b466b"/>
      <path d="M30 27l3-11 9 1 2 7-8 4z" fill="#203455"/>
      <path d="M89 25h13l17 5-13 4H93z" fill="#213456"/>
      <path d="M99 27h11v2H99z" fill="#8de0ff" stroke="none"/>
      <path d="M22 37l-10 0-3 4 7 2 9-1z" fill="#ff9640"/>
      <path d="M11 39l-6 1 6 2 9-1z" fill="#ffd277"/>
      <path d="M42 46h21" stroke="#9adfff"/>
      <path d="M38 46l6-11" stroke="#70b9e6"/>
      <path d="M67 46h21" stroke="#9adfff"/>
      <path d="M69 46l6-11" stroke="#70b9e6"/>
      <path d="M53 22l-3-4 4-4 4 4-3 4z" fill="#203456"/>
      <path d="M56 22h15l9-3 8 2-13 3z" fill="#8ad8ff"/>
      <path d="M79 25l6-6 10 2-5 5z" fill="#274261"/>
      <path d="M62 41l18 1" stroke="#cfefff" opacity=".35"/>
      <path d="M36 18v8" stroke="#86dafc"/>
    </g>
  </g>
</svg>
