<svg width="64" height="64" viewBox="0 0 64 64" xmlns="http://www.w3.org/2000/svg">
  <g fill="#6b1b0f">
    <circle cx="14" cy="31" r="8"/>
    <circle cx="22" cy="18" r="10"/>
    <circle cx="34" cy="13" r="9"/>
    <circle cx="47" cy="19" r="10"/>
    <circle cx="53" cy="31" r="8"/>
    <circle cx="47" cy="44" r="9"/>
    <circle cx="32" cy="50" r="10"/>
    <circle cx="18" cy="45" r="9"/>
    <circle cx="29" cy="31" r="18"/>
  </g>
  <g fill="#b83214">
    <circle cx="15" cy="31" r="6"/>
    <circle cx="23" cy="20" r="8"/>
    <circle cx="34" cy="16" r="7"/>
    <circle cx="45" cy="21" r="8"/>
    <circle cx="50" cy="31" r="6"/>
    <circle cx="44" cy="42" r="7"/>
    <circle cx="31" cy="47" r="8"/>
    <circle cx="20" cy="42" r="7"/>
    <circle cx="30" cy="31" r="15"/>
  </g>
  <g fill="#ff7c1a">
    <circle cx="19" cy="31" r="5"/>
    <circle cx="25" cy="23" r="6"/>
    <circle cx="34" cy="20" r="5"/>
    <circle cx="42" cy="24" r="6"/>
    <circle cx="45" cy="32" r="5"/>
    <circle cx="40" cy="39" r="5"/>
    <circle cx="31" cy="42" r="6"/>
    <circle cx="23" cy="38" r="5"/>
    <circle cx="30" cy="31" r="11"/>
  </g>
  <g fill="#ffbf3b">
    <circle cx="25" cy="30" r="5"/>
    <circle cx="31" cy="25" r="5"/>
    <circle cx="38" cy="29" r="4"/>
    <circle cx="36" cy="36" r="4"/>
    <circle cx="29" cy="38" r="5"/>
    <circle cx="31" cy="31" r="8"/>
  </g>
  <g fill="#fff3ad">
    <circle cx="31" cy="31" r="6"/>
    <circle cx="29" cy="27" r="3"/>
    <circle cx="35" cy="30" r="3"/>
    <circle cx="32" cy="36" r="3"/>
  </g>
</svg>
