<svg width="64" height="64" viewBox="0 0 64 64" xmlns="http://www.w3.org/2000/svg">
  <path fill="#5c180f" d="M32 1 L39 13 L53 7 L49 21 L63 22 L53 32 L63 42 L49 43 L53 57 L39 51 L32 63 L25 51 L11 57 L15 43 L1 42 L11 32 L1 22 L15 21 L11 7 L25 13 Z"/>
  <path fill="#bf3f16" d="M32 8 L38 19 L49 15 L46 25 L56 27 L48 32 L56 37 L46 39 L49 49 L38 45 L32 56 L26 45 L15 49 L18 39 L8 37 L16 32 L8 27 L18 25 L15 15 L26 19 Z"/>
  <path fill="#ff8c1d" d="M32 14 L37 23 L45 20 L43 28 L50 30 L44 32 L50 34 L43 36 L45 44 L37 41 L32 50 L27 41 L19 44 L21 36 L14 34 L20 32 L14 30 L21 28 L19 20 L27 23 Z"/>
  <path fill="#ffd25a" d="M32 20 L36 27 L42 25 L40 31 L45 32 L40 33 L42 39 L36 37 L32 44 L28 37 L22 39 L24 33 L19 32 L24 31 L22 25 L28 27 Z"/>
  <circle cx="32" cy="32" r="7" fill="#fff2a6"/>
</svg>
