<svg xmlns="http://www.w3.org/2000/svg" width="1536" height="648" viewBox="0 0 1536 648">
  <g fill="none">
    <path d="M0 648V472l112-68 146 20 88-56 144 28 96-48 168 44 112-56 142 34 92-50 150 44 114-22 172 72v158Z" fill="#17345f"/>
    <path d="M0 648V520l82-44h110l48-26h118l36-20h128l44 26h156l56-30h120l44 26h132l58-34h104l118 60v162Z" fill="#234978" opacity=".95"/>
    <g fill="#315f95">
      <rect x="166" y="334" width="44" height="170" rx="5"/>
      <rect x="210" y="366" width="26" height="140" rx="4"/>
      <rect x="438" y="322" width="50" height="182" rx="6"/>
      <rect x="494" y="360" width="28" height="146" rx="4"/>
      <rect x="742" y="312" width="54" height="192" rx="6"/>
      <rect x="804" y="352" width="32" height="154" rx="4"/>
      <rect x="1056" y="326" width="52" height="180" rx="6"/>
      <rect x="1118" y="362" width="30" height="144" rx="4"/>
      <rect x="1326" y="334" width="48" height="172" rx="6"/>
      <rect x="1380" y="368" width="28" height="138" rx="4"/>
    </g>
    <g fill="#ff9b4a">
      <rect x="182" y="380" width="14" height="22" rx="3"/>
      <rect x="452" y="372" width="14" height="24" rx="3"/>
      <rect x="758" y="364" width="16" height="24" rx="3"/>
      <rect x="1074" y="372" width="16" height="22" rx="3"/>
      <rect x="1342" y="378" width="14" height="22" rx="3"/>
    </g>
    <g fill="#6ad7ff" opacity=".8">
      <polygon points="74,542 106,462 148,542"/>
      <polygon points="1378,540 1410,466 1456,540"/>
    </g>
  </g>
</svg>
