<svg xmlns="http://www.w3.org/2000/svg" width="1536" height="648" viewBox="0 0 1536 648">
  <g fill="none">
    <path d="M0 648V566l90-34 126-8 88-74 134 14 76-48 164 32 112-42 178 44 94-44 150 24 82 66 124 18 118 52v50Z" fill="#223d65"/>
    <path d="M0 648V598l116-44 126 8 74-72 134 20 82-56 168 40 118-38 160 42 96-46 154 18 94 74 126 14 88 40v0Z" fill="#314f79"/>
    <path d="M0 648V610l154 0 88-76 146 16 104-68 216 26 114-48 170 34 88-54 174 20 102 80 180 0v70Z" fill="#182b4b"/>
    <g fill="#67e0ff" opacity=".9">
      <polygon points="92,610 126,520 166,610"/>
      <polygon points="132,610 168,496 214,610"/>
      <polygon points="1264,610 1302,510 1348,610"/>
      <polygon points="1306,610 1346,492 1394,610"/>
    </g>
    <g fill="#ff9e4e" opacity=".9">
      <path d="M224 612h46l18 26h-84Z"/>
      <path d="M1220 612h50l18 26h-86Z"/>
      <path d="M516 604h24l8 18h-40Z"/>
      <path d="M968 606h26l8 18h-42Z"/>
    </g>
  </g>
</svg>
