<svg xmlns="http://www.w3.org/2000/svg" width="1536" height="648" viewBox="0 0 1536 648">
  <defs>
    <linearGradient id="sky" x1="0" y1="0" x2="0" y2="1">
      <stop offset="0%" stop-color="#03102c"/>
      <stop offset="48%" stop-color="#0d2a56"/>
      <stop offset="100%" stop-color="#1d4d7c"/>
    </linearGradient>
    <radialGradient id="planetBlue" cx="40%" cy="40%" r="50%">
      <stop offset="0%" stop-color="#9be5ff"/>
      <stop offset="55%" stop-color="#4f89d8"/>
      <stop offset="100%" stop-color="#193565"/>
    </radialGradient>
    <radialGradient id="planetEmber" cx="45%" cy="42%" r="52%">
      <stop offset="0%" stop-color="#ffdcb0"/>
      <stop offset="45%" stop-color="#ff9e61"/>
      <stop offset="100%" stop-color="#6a2b35"/>
    </radialGradient>
    <linearGradient id="cloud" x1="0" y1="0" x2="1" y2="0">
      <stop offset="0%" stop-color="#e8f5ff" stop-opacity="0"/>
      <stop offset="50%" stop-color="#d7ecff" stop-opacity=".22"/>
      <stop offset="100%" stop-color="#e8f5ff" stop-opacity="0"/>
    </linearGradient>
  </defs>
  <rect width="1536" height="648" fill="url(#sky)"/>
  <circle cx="302" cy="212" r="206" fill="url(#planetBlue)" opacity=".96"/>
  <ellipse cx="266" cy="242" rx="160" ry="64" fill="#b7eeff" opacity=".22"/>
  <circle cx="1154" cy="220" r="166" fill="url(#planetEmber)" opacity=".92"/>
  <circle cx="1038" cy="320" r="62" fill="#d89572" opacity=".8"/>
  <ellipse cx="768" cy="516" rx="520" ry="74" fill="#5eb0ff" opacity=".1"/>
  <g opacity=".75">
    <ellipse cx="952" cy="142" rx="210" ry="36" fill="url(#cloud)"/>
    <ellipse cx="1108" cy="168" rx="190" ry="28" fill="url(#cloud)"/>
    <ellipse cx="412" cy="128" rx="180" ry="24" fill="url(#cloud)"/>
    <ellipse cx="588" cy="176" rx="224" ry="32" fill="url(#cloud)"/>
    <ellipse cx="1292" cy="294" rx="220" ry="34" fill="url(#cloud)"/>
  </g>
  <g stroke="#b7dfff" stroke-linecap="round" opacity=".65">
    <line x1="602" y1="108" x2="656" y2="148" stroke-width="5"/>
    <line x1="698" y1="236" x2="742" y2="270" stroke-width="4"/>
    <line x1="812" y1="188" x2="846" y2="214" stroke-width="3"/>
  </g>
</svg>
